<svg xmlns="http://www.w3.org/2000/svg" fill="none" overflow="visible" preserveAspectRatio="none" style="display:block" viewBox="0 0 30 36"><g fill="var(--fill-0, #c97a4a)"><path d="m15 36-1.046-.892C10.68 32.313 0 22.615 0 15.138 0 6.79 6.73 0 15 0s15 6.79 15 15.137c0 7.478-10.68 17.176-13.953 19.97zm0-34.5C7.548 1.5 1.486 7.617 1.486 15.137c0 7.008 11.185 16.91 13.426 18.826l.088.075.088-.075c2.241-1.914 13.426-11.818 13.426-18.826C28.514 7.617 22.452 1.5 15 1.5"/><path d="M15 21c-3.28 0-5.946-2.69-5.946-6S11.72 9 15 9s5.946 2.691 5.946 6-2.667 6-5.946 6m0-10.5c-2.459 0-4.46 2.02-4.46 4.5 0 2.482 2.001 4.5 4.46 4.5s4.46-2.018 4.46-4.5c0-2.48-2.002-4.5-4.46-4.5"/></g></svg>