<svg preserveAspectRatio="none" width="100%" height="100%" overflow="visible" style="display: block;" viewBox="0 0 24 24" fill="none" xmlns="http://www.w3.org/2000/svg">
<g id="bath 2" clip-path="url(#clip0_408_667)">
<path id="Vector" d="M23.302 12.8628C22.807 12.3058 22.135 11.9998 21.409 11.9998H1V4.03877C1 3.19677 1.299 2.35877 1.91 1.78077C3.044 0.707775 4.634 0.811775 5.652 1.66077L5.027 5.24977C4.949 5.69077 5.04 6.14277 5.282 6.52077C5.55 6.93777 5.982 7.22677 6.469 7.31477C6.573 7.33477 6.679 7.34277 6.784 7.34277C7.168 7.34277 7.547 7.21877 7.858 6.98677L11.285 4.41677C12.029 3.85777 12.22 2.80677 11.705 2.00277C11.392 1.51577 10.858 1.20877 10.28 1.18377L6.426 1.01077C5.012 -0.285225 2.667 -0.454225 1.083 1.20777C0.356 1.97177 0 3.01977 0 4.07377V12.1838C0 12.3978 0.012 12.6088 0.037 12.8208C0.129 13.6118 0.363 15.6128 0.363 15.6128C0.641 17.9728 1.829 20.0078 3.526 21.3408C3.522 21.3538 3.014 23.4018 3.014 23.4018C2.948 23.6708 3.112 23.9408 3.379 24.0068C3.419 24.0168 3.46 24.0218 3.499 24.0218C3.724 24.0218 3.928 23.8698 3.984 23.6418L4.405 21.9408C5.553 22.6168 6.87 22.9988 8.261 22.9988H16.015C17.311 22.9988 18.542 22.6668 19.632 22.0748L20.014 23.6188C20.071 23.8468 20.275 23.9988 20.499 23.9988C20.538 23.9988 20.579 23.9938 20.619 23.9838C20.887 23.9178 21.051 23.6468 20.984 23.3788L20.522 21.5118C22.34 20.1858 23.623 18.0768 23.913 15.6118L23.977 15.0548C24.072 14.2518 23.825 13.4518 23.299 12.8618L23.302 12.8628ZM10.876 2.56177C11.097 2.90777 11.013 3.37077 10.686 3.61577L7.259 6.18577C7.081 6.31777 6.863 6.36677 6.647 6.33177C6.43 6.29177 6.245 6.16777 6.125 5.98177C6.019 5.81577 5.979 5.61677 6.013 5.42177L6.606 2.01977L10.237 2.18077C10.492 2.19277 10.727 2.32777 10.878 2.56177H10.876ZM22.986 14.9398L22.922 15.4968C22.485 19.2048 19.517 22.0008 16.016 22.0008H8.262C4.761 22.0008 1.792 19.2048 1.356 15.4968L1.063 13.0008H21.41C21.846 13.0008 22.253 13.1888 22.556 13.5278C22.892 13.9058 23.049 14.4208 22.988 14.9398H22.986Z" fill="var(--fill-0, white)"/>
</g>
<defs>
<clipPath id="clip0_408_667">
<rect width="24" height="24" fill="white"/>
</clipPath>
</defs>
</svg>
