<svg preserveAspectRatio="none" width="100%" height="100%" overflow="visible" style="display: block;" viewBox="0 0 30 30" fill="none" xmlns="http://www.w3.org/2000/svg">
<path id="Vector" d="M24.375 0H5.625C2.52375 0 0 3.0285 0 6.75V29.25C0 29.664 0.28 30 0.625 30C0.97 30 1.25 29.664 1.25 29.25V25.5H28.75V29.25C28.75 29.664 29.03 30 29.375 30C29.72 30 30 29.664 30 29.25V6.75C30 3.0285 27.4762 0 24.375 0ZM5.625 1.5H24.375C26.7875 1.5 28.75 3.855 28.75 6.75V18H26.25V15.75C26.25 12.855 24.2875 10.5 21.875 10.5H18.75C17.16 10.5 15.7662 11.523 15 13.0485C14.2338 11.523 12.84 10.5 11.25 10.5H8.125C5.7125 10.5 3.75 12.855 3.75 15.75V18H1.25V6.75C1.25 3.855 3.2125 1.5 5.625 1.5ZM15.625 18V15.75C15.625 13.683 17.0263 12 18.75 12H21.875C23.5987 12 25 13.683 25 15.75V18H15.625ZM5 18V15.75C5 13.683 6.4025 12 8.125 12H11.25C12.9725 12 14.375 13.683 14.375 15.75V18H5ZM1.25 24V19.5H28.75V24H1.25Z" fill="var(--fill-0, white)"/>
</svg>
