<svg preserveAspectRatio="none" width="100%" height="100%" overflow="visible" style="display: block;" viewBox="0 0 30 30" fill="none" xmlns="http://www.w3.org/2000/svg">
<path id="Vector" d="M18.0591 28.75C11.5759 28.75 6.09494 24.515 4.40641 18.75H20.6389V17.5H4.10586C3.95107 16.6888 3.8698 15.8538 3.8698 15C3.8698 14.1462 3.95107 13.3112 4.10586 12.5H20.6389V11.25H4.40641C6.09494 5.485 11.5759 1.25 18.0591 1.25C22.3068 1.25 26.2966 3.0725 29.0055 6.25L30 5.45375C27.046 1.9875 22.6938 0 18.0591 0C10.86 0 4.79211 4.7875 3.07004 11.25H0V12.5H2.79658C2.65468 13.3138 2.57987 14.1488 2.57987 15C2.57987 15.8512 2.65468 16.6862 2.79658 17.5H0V18.75H3.07004C4.7934 25.2125 10.86 30 18.0591 30C22.6938 30 27.046 28.0125 30 24.5462L29.0055 23.75C26.2966 26.9275 22.3068 28.75 18.0591 28.75Z" fill="var(--fill-0, white)"/>
</svg>
